<?xml version="1.0" encoding="utf-8"?>
<!-- Generator: Adobe Illustrator 27.0.0, SVG Export Plug-In . SVG Version: 6.00 Build 0)  -->
<svg version="1.1" id="Capa_1" xmlns="http://www.w3.org/2000/svg" xmlns:xlink="http://www.w3.org/1999/xlink" x="0px" y="0px"
	 viewBox="0 0 1031.3 1031.3" style="enable-background:new 0 0 1031.3 1031.3;" xml:space="preserve">
<style type="text/css">
	.st0{opacity:0.5;}
	.st1{clip-path:url(#SVGID_00000161618674168347589110000005005947484016850358_);}
	.st2{filter:url(#Adobe_OpacityMaskFilter);}
	
		.st3{clip-path:url(#SVGID_00000005969902551905443690000014095750316687776656_);fill:url(#SVGID_00000118363998588067192710000016563093271344305573_);}
	
		.st4{clip-path:url(#SVGID_00000005969902551905443690000014095750316687776656_);mask:url(#SVGID_00000087376373061879197890000001017924961939912858_);fill:url(#SVGID_00000178911159059862769860000010799544433806869407_);}
	.st5{fill:url(#SVGID_00000044150391543775489790000011437117836527959230_);}
	
		.st6{clip-path:url(#SVGID_00000072272278503565905120000003933359612979880121_);fill:url(#SVGID_00000009560345078169995660000017355105506643769767_);}
	
		.st7{clip-path:url(#SVGID_00000037690563047389658350000014004758540433070237_);fill:url(#SVGID_00000084526597741046419400000011497120843410853797_);}
</style>
<g class="st0">
	<g>
		<defs>
			<rect id="SVGID_1_" x="18.6" y="18.6" width="1000.1" height="1000.1"/>
		</defs>
		<clipPath id="SVGID_00000125599843022920298550000013222568212106722730_">
			<use xlink:href="#SVGID_1_"  style="overflow:visible;"/>
		</clipPath>
		<g style="clip-path:url(#SVGID_00000125599843022920298550000013222568212106722730_);">
			<defs>
				<path id="SVGID_00000179638904705405968020000007162846739922767030_" d="M1018.7,518.7c0,276.2-223.9,500.1-500.1,500.1
					S18.6,794.8,18.6,518.7S242.5,18.6,518.7,18.6S1018.7,242.5,1018.7,518.7"/>
			</defs>
			<clipPath id="SVGID_00000086659745560291669290000013772738730093686178_">
				<use xlink:href="#SVGID_00000179638904705405968020000007162846739922767030_"  style="overflow:visible;"/>
			</clipPath>
			<defs>
				<filter id="Adobe_OpacityMaskFilter" filterUnits="userSpaceOnUse" x="18.6" y="18.6" width="1000.1" height="1000.1">
					<feColorMatrix  type="matrix" values="1 0 0 0 0  0 1 0 0 0  0 0 1 0 0  0 0 0 1 0"/>
				</filter>
			</defs>
			
				<mask maskUnits="userSpaceOnUse" x="18.6" y="18.6" width="1000.1" height="1000.1" id="SVGID_00000140736241312292406990000009477412583883172523_">
				<g class="st2">
					
						<linearGradient id="SVGID_00000062904437545487968000000004935126620572238479_" gradientUnits="userSpaceOnUse" x1="-440.5027" y1="1065.2399" x2="-434.3291" y2="1065.2399" gradientTransform="matrix(0 120.1297 120.1297 0 -127448.3203 53036.5352)">
						<stop  offset="0" style="stop-color:#FFFFFF"/>
						<stop  offset="1" style="stop-color:#000000"/>
					</linearGradient>
					
						<rect x="18.6" y="18.6" style="clip-path:url(#SVGID_00000086659745560291669290000013772738730093686178_);fill:url(#SVGID_00000062904437545487968000000004935126620572238479_);" width="1000.1" height="1000.1"/>
				</g>
			</mask>
			
				<linearGradient id="SVGID_00000027569032807571282330000006300308970083926415_" gradientUnits="userSpaceOnUse" x1="-440.5027" y1="1065.2399" x2="-434.3291" y2="1065.2399" gradientTransform="matrix(0 120.1297 120.1297 0 -127448.3281 53036.5352)">
				<stop  offset="0" style="stop-color:#FFFFFF"/>
				<stop  offset="1" style="stop-color:#F2F2F2"/>
			</linearGradient>
			
				<rect x="18.6" y="18.6" style="clip-path:url(#SVGID_00000086659745560291669290000013772738730093686178_);mask:url(#SVGID_00000140736241312292406990000009477412583883172523_);fill:url(#SVGID_00000027569032807571282330000006300308970083926415_);" width="1000.1" height="1000.1"/>
		</g>
	</g>
</g>
<linearGradient id="SVGID_00000062874049869644945380000007792655785215592082_" gradientUnits="userSpaceOnUse" x1="-441.7072" y1="1054.348" x2="-435.5336" y2="1054.348" gradientTransform="matrix(83.0136 -143.784 -143.784 -83.0136 188528.4844 24977.2832)">
	<stop  offset="0" style="stop-color:#0C2C41"/>
	<stop  offset="0.4785" style="stop-color:#6DB32D"/>
	<stop  offset="1" style="stop-color:#3BA9E0"/>
</linearGradient>
<path style="fill:url(#SVGID_00000062874049869644945380000007792655785215592082_);" d="M1021.8,518.7h6.2
	c0,281.3-228,509.3-509.3,509.3c-281.3,0-509.3-228-509.3-509.3c0-281.3,228-509.3,509.3-509.3c281.3,0,509.3,228,509.3,509.3
	H1021.8h-6.2c-0.5-274.5-222.5-496.5-497-497c-274.5,0.5-496.5,222.5-497,497c0.5,274.5,222.5,496.5,497,497
	c274.5-0.5,496.5-222.5,497-497H1021.8z"/>
<g>
	<defs>
		<path id="SVGID_00000093152535390601666960000010650324234133584545_" d="M388,374.6c0,72.2,58.5,130.7,130.7,130.7
			s130.7-58.5,130.7-130.7c0-72.2-58.5-130.7-130.7-130.7S388,302.4,388,374.6"/>
	</defs>
	<clipPath id="SVGID_00000023254581387535568510000018300101003949652357_">
		<use xlink:href="#SVGID_00000093152535390601666960000010650324234133584545_"  style="overflow:visible;"/>
	</clipPath>
	
		<linearGradient id="SVGID_00000080891131072989672580000011096132260015545011_" gradientUnits="userSpaceOnUse" x1="-448.6505" y1="1045.3098" x2="-442.477" y2="1045.3098" gradientTransform="matrix(0 -54.2123 -54.2123 0 57187.3516 -23562.8066)">
		<stop  offset="0" style="stop-color:#6DB32D"/>
		<stop  offset="1" style="stop-color:#3BA9E0"/>
	</linearGradient>
	
		<rect x="388" y="243.9" style="clip-path:url(#SVGID_00000023254581387535568510000018300101003949652357_);fill:url(#SVGID_00000080891131072989672580000011096132260015545011_);" width="261.3" height="261.3"/>
</g>
<g>
	<defs>
		<path id="SVGID_00000008138287264619543530000005346191933488929441_" d="M481.7,532.1c-88.8,0-160.7,72-160.7,160.7v59.2
			c0,22.9,18.6,41.4,41.4,41.4h312.4c22.9,0,41.4-18.6,41.4-41.4v-59.2c0-88.8-72-160.7-160.7-160.7H481.7z"/>
	</defs>
	<clipPath id="SVGID_00000031192556712764823690000017387932605178103977_">
		<use xlink:href="#SVGID_00000008138287264619543530000005346191933488929441_"  style="overflow:visible;"/>
	</clipPath>
	
		<linearGradient id="SVGID_00000044141259133239954800000007548960268089982123_" gradientUnits="userSpaceOnUse" x1="-448.6505" y1="1045.3098" x2="-442.477" y2="1045.3098" gradientTransform="matrix(0 -54.2123 -54.2123 0 57187.3516 -23562.8066)">
		<stop  offset="0" style="stop-color:#6DB32D"/>
		<stop  offset="1" style="stop-color:#3BA9E0"/>
	</linearGradient>
	
		<rect x="321" y="532.1" style="clip-path:url(#SVGID_00000031192556712764823690000017387932605178103977_);fill:url(#SVGID_00000044141259133239954800000007548960268089982123_);" width="395.3" height="261.3"/>
</g>
</svg>
