<svg id="Capa_1" data-name="Capa 1" width="180" height="180" xmlns="http://www.w3.org/2000/svg" viewBox="0 0 566.93 566.93">
  <defs>
    <style>
      .cls-1 {
        fill: #fff;
      }
    </style>
  </defs>
  <title>Sin título-1</title>
  <path class="cls-1"
    d="M233,299.87a.85.85,0,0,1,1,1v4.52c2.42-4.08,5.8-6.12,10.07-6.12s7.64,2.24,9.62,6.76c3.18-4.52,7.13-6.76,11.78-6.76,7.2,0,11.34,5.36,11.34,14.59v16.95c0,.64-.32,1-.89,1h-5.35a.85.85,0,0,1-1-1V315.16c0-5.41-2.16-9-6.5-9a7.22,7.22,0,0,0-5.35,2.61,8.63,8.63,0,0,0-2.35,6v16a.85.85,0,0,1-1,1h-5.29a.85.85,0,0,1-1-1V315.16c0-5.41-2.17-9-6.5-9a6.92,6.92,0,0,0-5.42,2.67,9,9,0,0,0-2.29,6v16a.85.85,0,0,1-1,1h-5.29a.85.85,0,0,1-1-1V300.83a.85.85,0,0,1,1-1Z" />
  <path class="cls-1"
    d="M297.82,299.23c6.18,0,10.39,1.47,12.62,4.46s3.06,6.25,3.06,11.09v15.93a.89.89,0,0,1-1,1h-4.84c-.71,0-1-.32-1-1V328q-4.69,4.39-12.62,4.39c-5.41.32-10.89-2.29-11-9.43,0-4.84,3.31-7.32,7.39-8.79a22.3,22.3,0,0,1,4.65-1,59.35,59.35,0,0,1,9.49-.57h1.66v-.26c0-4.52-3-6.75-8.92-6.75a29.42,29.42,0,0,0-8,1.28l-1.34.44a1,1,0,0,1-1.34-.57l-1.34-3.57c-.25-.7-.12-1.21.45-1.4A27.3,27.3,0,0,1,297.82,299.23Zm8.54,17.65h-.89c-9.75,0-15,1.4-15,5.8,0,3.25,2.23,4.9,6.62,4.9a11.08,11.08,0,0,0,6.44-1.91c1.85-1.27,2.8-2.61,2.8-4.07Z" />
  <path class="cls-1"
    d="M345,328.22a.87.87,0,0,1-.32,1.34,16.72,16.72,0,0,1-9.43,2.8,15.42,15.42,0,0,1-11.59-4.84,16.91,16.91,0,0,1,0-23.44,15.43,15.43,0,0,1,11.59-4.85,16.57,16.57,0,0,1,9.37,2.87c.63.38.76.83.31,1.4l-2.86,4c-.32.51-.77.57-1.34.19a9.85,9.85,0,0,0-5.48-1.59,8.88,8.88,0,0,0-6.62,2.8A9.7,9.7,0,0,0,326,315.8a9.5,9.5,0,0,0,2.68,6.88,8.74,8.74,0,0,0,6.56,2.8,10.59,10.59,0,0,0,5.61-1.59.91.91,0,0,1,1.27.25Z" />
  <path class="cls-1"
    d="M364.65,299.23c6.18,0,10.39,1.47,12.62,4.46s3.05,6.25,3.05,11.09v15.93a.89.89,0,0,1-1,1h-4.84a.89.89,0,0,1-1-1V328q-4.68,4.39-12.61,4.39c-5.41.32-10.89-2.29-11-9.43,0-4.84,3.31-7.32,7.39-8.79a22.3,22.3,0,0,1,4.65-1,59.28,59.28,0,0,1,9.49-.57H373v-.26c0-4.52-3-6.75-8.92-6.75a29.42,29.42,0,0,0-8,1.28l-1.34.44a1,1,0,0,1-1.34-.57l-1.34-3.57c-.25-.7-.13-1.21.45-1.4A27.27,27.27,0,0,1,364.65,299.23Zm8.54,17.65h-.89c-9.75,0-15,1.4-15,5.8,0,3.25,2.23,4.9,6.62,4.9a11.08,11.08,0,0,0,6.44-1.91c1.84-1.27,2.8-2.61,2.8-4.07Z" />
  <path class="cls-1"
    d="M394.85,299.87a.85.85,0,0,1,1,1v5h.06c1.34-3.51,4.71-6.57,8.6-6.57a9,9,0,0,1,4.52,1c.45.26.58.7.32,1.34l-1.4,4.9c-.19.58-.64.71-1.28.39a8.49,8.49,0,0,0-2.93-.51,6.79,6.79,0,0,0-5.6,3.05,11.76,11.76,0,0,0-2.29,7.39v14a.85.85,0,0,1-1,1h-5.29a.84.84,0,0,1-.95-1V300.83a.84.84,0,0,1,.95-1Z" />
  <path class="cls-1"
    d="M434.6,324.14a1,1,0,0,1,1.34.32l2.42,3.38a.83.83,0,0,1-.32,1.27,21.9,21.9,0,0,1-11.72,3.25,15.62,15.62,0,0,1-11.59-4.84A16.2,16.2,0,0,1,410,315.8a17,17,0,0,1,4.33-11.66,14.3,14.3,0,0,1,11.21-4.91,14,14,0,0,1,11.41,5.17,18.52,18.52,0,0,1,4.26,12.42c0,.7-.38,1.08-1.14,1.08H416.76a9.56,9.56,0,0,0,9.75,8.35A16.2,16.2,0,0,0,434.6,324.14Zm-.38-10.76c-.7-5.1-3.82-8.54-8.73-8.54s-8.09,3.44-8.66,8.54Z" />
  <path class="cls-1"
    d="M469.9,331.73a.85.85,0,0,1-1-1V315.16c0-5.54-2.48-9-7.39-9a7.42,7.42,0,0,0-5.73,2.67,8.56,8.56,0,0,0-2.36,6v16a.85.85,0,0,1-1,1h-5.28a.85.85,0,0,1-1-1V300.83a.85.85,0,0,1,1-1h5.28a.85.85,0,0,1,1,1v4.65A12.45,12.45,0,0,1,464,299.23c8,0,12.17,5.42,12.17,14.59v16.95a.85.85,0,0,1-1,1Z" />
  <path class="cls-1"
    d="M487.41,283.31a4.33,4.33,0,1,1,0,8.66,4.33,4.33,0,0,1,0-8.66Zm-2.54,48.42a.85.85,0,0,1-1-1V300.83a.85.85,0,0,1,1-1h5.28a.85.85,0,0,1,1,1v29.94a.85.85,0,0,1-1,1Z" />
  <path class="cls-1"
    d="M513.15,299.23c6.18,0,10.38,1.47,12.61,4.46s3.06,6.25,3.06,11.09v15.93a.89.89,0,0,1-1,1H523a.89.89,0,0,1-1-1V328q-4.68,4.39-12.61,4.39c-5.42.32-10.9-2.29-11-9.43,0-4.84,3.31-7.32,7.39-8.79a22,22,0,0,1,4.65-1,59.21,59.21,0,0,1,9.49-.57h1.66v-.26c0-4.52-3-6.75-8.92-6.75a29.5,29.5,0,0,0-8,1.28l-1.33.44a1,1,0,0,1-1.34-.57l-1.34-3.57c-.26-.7-.13-1.21.45-1.4A27.27,27.27,0,0,1,513.15,299.23Zm8.54,17.65h-.89c-9.75,0-15,1.4-15,5.8,0,3.25,2.23,4.9,6.63,4.9a11,11,0,0,0,6.43-1.91c1.85-1.27,2.81-2.61,2.81-4.07Z" />
  <circle class="cls-1" cx="224.94" cy="261.4" r="10" />
  <circle class="cls-1" cx="182.3" cy="282.04" r="10" />
  <circle class="cls-1" cx="190.55" cy="244.54" r="10" />
  <path class="cls-1"
    d="M214.78,278.44s-6.51-5.72-5.35-7.65c4.3-7.12,12.34-12.11,13.46-12.79l4.09,6.8C224,266.64,215.84,272.66,214.78,278.44Z" />
  <path class="cls-1"
    d="M207.85,297.12c-15.51,0-27.72-11.65-28.32-12.24l5.53-5.69L182.3,282l2.76-2.86c.14.14,14.31,13.58,29.22,9.06,0,0-.43,8.31-1.57,8.49A30,30,0,0,1,207.85,297.12Z" />
  <path class="cls-1"
    d="M183.6,307.77a26.47,26.47,0,0,1-26.36-24.18,19.39,19.39,0,0,1-.07-3.32,26.58,26.58,0,0,1,11.58-20.64,27.23,27.23,0,0,1-3.64-9.52,23.83,23.83,0,0,1-.27-6.64,26.37,26.37,0,0,1,49-11.08,27.17,27.17,0,0,1,2.07,4.41,26.63,26.63,0,0,1,24,4.15,19.39,19.39,0,0,1,2.72,2.4,26.39,26.39,0,0,1-15.82,44.77c-1.28.15-3.2-4.65-4-6.81a.73.73,0,0,1,.72-1,18.41,18.41,0,0,0,3.08-36.62,18.09,18.09,0,0,0-10.08,1.34c-.48.21-.94.43-1.39.67L211,247.91a.69.69,0,0,1-1-.5l-.72-4.56A18.4,18.4,0,0,0,183.53,229a18.44,18.44,0,0,0-5.94,29.25l3.1,3.36a.68.68,0,0,1-.22,1.09l-4.94,2.21a18.41,18.41,0,0,0,14.66,33.74.78.78,0,0,1,1,.91c-.61,2.6-1.89,7.64-2.71,7.8A26.4,26.4,0,0,1,183.6,307.77Z" />
  <path class="cls-1"
    d="M209.27,288.41c.48,11.07-2.66,27.44-19.84,42.92a.47.47,0,0,0,.3.82h9.44a1.75,1.75,0,0,0,1.28-.57C215,315.74,217.7,299.5,217.2,288.07c-.76-17.7-10.08-35.58-23.73-45.56l-4.69,6.41C200.57,257.53,208.61,273,209.27,288.41Z" />
  <path class="cls-1"
    d="M47.67,285.71v17.75h.18c1.77-3.95,6.48-7.13,12.26-7.13,7.67,0,15.22,5.48,15.22,15.92s-7.55,15.92-15.22,15.92c-5.78,0-10.49-3.18-12.26-7.13h-.18v6.54h-3.6V285.71Zm12,39.16c6,0,12.09-4.13,12.09-12.62s-6.07-12.62-12.09-12.62-12.09,4.19-12.09,12.62S53.63,324.87,59.64,324.87Z" />
  <path class="cls-1" d="M89.84,327.35l-13-30.43h3.78l11,26.06,11-26.06h3.77L93.26,327.58l-5,11.21H84.77Z" />
  <path class="cls-1"
    d="M113.43,297.92a2.24,2.24,0,1,1-2.24,2.24A2.16,2.16,0,0,1,113.43,297.92Zm-2.24,28a2.24,2.24,0,1,1,2.24,2.24A2.16,2.16,0,0,1,111.19,325.93Z" />
</svg>