<?xml version="1.0" encoding="utf-8"?>
<!-- Generator: Adobe Illustrator 27.0.0, SVG Export Plug-In . SVG Version: 6.00 Build 0)  -->
<svg width="28px" height="28px" version="1.1" id="Capa_1" xmlns="http://www.w3.org/2000/svg" xmlns:xlink="http://www.w3.org/1999/xlink" x="0px" y="0px"
	 viewBox="0 0 331.4 363.6" style="enable-background:new 0 0 331.4 363.6;" xml:space="preserve">
<style type="text/css">
	.st0{fill:none;stroke:#FFFFFF;stroke-width:13;stroke-linecap:round;stroke-linejoin:round;stroke-miterlimit:10;}
	.st1{fill:none;stroke:#FFFFFF;stroke-width:13;stroke-miterlimit:10;}
	.st2{fill:#FFFFFF;}
	.st3{fill:none;stroke:#FFFFFF;stroke-width:10;stroke-linecap:round;stroke-linejoin:round;stroke-miterlimit:10;}
</style>
<path class="st0" d="M233.3,204.2v25.9c18.5,11.6,30.8,34.2,30.8,57.7c0,37.8-31.9,68.1-70.3,65.5c-32.4-2.2-58.6-28.5-60.8-60.9
	c-1.8-26.2,11.8-49.4,32.6-61.5l0.2-156.6c0-18.9,15.3-34.1,34.2-34.1h0c18.4,0,33.3,14.9,33.3,33.3v51.5"/>
<path class="st2" d="M199.2,69.3L199.2,69.3c9.5,0,17.2,7.7,17.2,17.2v170c9.6,6,15.9,17.7,15.9,29.8c0,19.5-16.5,35.2-36.3,33.8
	c-16.7-1.2-30.3-14.7-31.4-31.4c-0.9-13.5,6.1-25.5,16.9-31.7l0.1-170C181.6,77.2,189.5,69.3,199.2,69.3z"/>
<circle class="st0" cx="78.8" cy="69.6" r="21.1"/>
<line class="st0" x1="78.6" y1="13.3" x2="78.6" y2="32.8"/>
<line class="st0" x1="78.6" y1="107.9" x2="78.6" y2="127.4"/>
<line class="st0" x1="135.6" y1="70.3" x2="116.2" y2="70.3"/>
<line class="st0" x1="41" y1="70.3" x2="21.6" y2="70.3"/>
<line class="st0" x1="118.9" y1="110.7" x2="105.2" y2="96.9"/>
<line class="st0" x1="52" y1="43.8" x2="38.3" y2="30"/>
<line class="st0" x1="118.9" y1="30" x2="105.2" y2="43.8"/>
<line class="st0" x1="52" y1="96.9" x2="38.3" y2="110.7"/>
<line class="st0" x1="252" y1="144.6" x2="232.5" y2="144.6"/>
<line class="st0" x1="252" y1="164.5" x2="232.5" y2="164.5"/>
<line class="st0" x1="252" y1="184.4" x2="232.5" y2="184.4"/>
</svg>
