<?xml version="1.0" encoding="iso-8859-1"?>
<!-- Generator: Adobe Illustrator 17.1.0, SVG Export Plug-In . SVG Version: 6.00 Build 0)  -->
<!DOCTYPE svg PUBLIC "-//W3C//DTD SVG 1.1//EN" "http://www.w3.org/Graphics/SVG/1.1/DTD/svg11.dtd">
<svg version="1.1" id="Capa_1" width="18px" height="18px" xmlns="http://www.w3.org/2000/svg" xmlns:xlink="http://www.w3.org/1999/xlink" x="0px" y="0px"
	 viewBox="0 0 396.724 396.724" style="enable-background:new 0 0 396.724 396.724;" xml:space="preserve">
<path fill="#ffff" d="M111.65,85.299c0-4.971,4.029-9,9-9h210.405c2.624,0,5.117,1.146,6.827,3.135c1.71,1.99,2.466,4.628,2.07,7.222
	l-8.989,58.957c-0.679,4.454-4.515,7.645-8.886,7.645c-0.451,0-0.908-0.033-1.368-0.104c-4.914-0.749-8.29-5.34-7.541-10.254
	l7.41-48.601H120.65C115.679,94.299,111.65,90.269,111.65,85.299z M179.979,238.73h-79.761L66.964,44.62
	c-0.74-4.321-4.486-7.48-8.871-7.48H9c-4.971,0-9,4.029-9,9s4.029,9,9,9h41.504l33.254,194.11c0.751,4.386,4.556,7.482,8.86,7.482
	c0.504-0.001,1.017-0.043,1.53-0.131c0.036-0.007,0.071-0.013,0.107-0.02c0.53,0.098,1.077,0.148,1.635,0.148h84.089
	c4.971,0,9-4.029,9-9S184.95,238.73,179.979,238.73z M162.583,302.419v15.971c0,15.012-12.213,27.225-27.225,27.225
	s-27.225-12.213-27.225-27.225v-15.971c0-15.012,12.212-27.225,27.223-27.225C150.369,275.194,162.583,287.407,162.583,302.419z
	 M144.583,302.419c0-5.087-4.138-9.225-9.225-9.225h-0.002c-5.085,0-9.223,4.138-9.223,9.225v15.971
	c0,5.086,4.138,9.225,9.223,9.225c5.088,0,9.227-4.139,9.227-9.225V302.419z M395.48,218.477
	c-5.311,42.666-26.919,80.711-60.846,107.125c-28.551,22.229-62.952,33.982-98.565,33.982c-6.705,0-13.451-0.417-20.211-1.259
	c-5.654-0.705-11.354-1.726-16.947-3.033c-3.753-0.877-6.532-4.047-6.909-7.883c-1.167-11.876-1.01-23.925,0.47-35.811
	c10.967-88.079,91.547-150.821,179.625-139.851c5.66,0.706,11.36,1.727,16.946,3.033c3.752,0.878,6.529,4.046,6.907,7.88
	C397.121,194.53,396.963,206.581,395.48,218.477z M378.529,190.961c-2.882-0.539-5.778-0.991-8.66-1.351
	c-78.221-9.736-149.795,45.983-159.536,124.213c-0.556,4.462-0.901,8.948-1.038,13.438l82.336-72.136
	c3.737-3.275,9.424-2.901,12.7,0.839c3.275,3.738,2.9,9.425-0.839,12.7l-82.351,72.148c36.847,3.803,73.111-6.585,102.433-29.414
	c30.133-23.46,49.326-57.251,54.042-95.146C378.665,207.855,378.969,199.375,378.529,190.961z"/>
<g>
</g>
<g>
</g>
<g>
</g>
<g>
</g>
<g>
</g>
<g>
</g>
<g>
</g>
<g>
</g>
<g>
</g>
<g>
</g>
<g>
</g>
<g>
</g>
<g>
</g>
<g>
</g>
<g>
</g>
</svg>
