<?xml version="1.0" encoding="iso-8859-1"?>
<!-- Generator: Adobe Illustrator 19.0.0, SVG Export Plug-In . SVG Version: 6.00 Build 0)  -->
<svg version="1.1" id="Layer_1" width="18px" height="18px"  xmlns="http://www.w3.org/2000/svg" xmlns:xlink="http://www.w3.org/1999/xlink" x="0px" y="0px"
	 viewBox="0 0 512 512" style="enable-background:new 0 0 512 512;" xml:space="preserve">
<g>
	<g>
		<path style="fill:#ffff;" d="M501.676,229.018H381.842v-28.283h15.628c44.398,0,80.519-36.12,80.519-80.519V94.263c0-5.702-4.622-10.324-10.325-10.324
			h-25.952c-30.101,0-56.38,16.613-70.194,41.142c-13.815-24.529-40.094-41.142-70.195-41.142h-25.953
			c-5.702,0-10.325,4.622-10.325,10.324v25.953c0,44.398,36.12,80.519,80.519,80.519h15.628v28.283H150.807v-28.283h15.628
			c44.398,0,80.519-36.12,80.519-80.519V94.263c0-5.702-4.622-10.324-10.325-10.324h-25.953c-30.101,0-56.38,16.613-70.194,41.142
			c-13.815-24.529-40.094-41.142-70.194-41.142H44.334c-5.702,0-10.324,4.622-10.324,10.324v25.953
			c0,44.398,36.12,80.519,80.519,80.519h15.628v28.283H10.325C4.622,229.018,0,233.64,0,239.342v45.485
			c0,5.702,4.622,10.325,10.325,10.325h16.556l14.913,102.335c2.54,17.431,18.733,30.575,37.666,30.575h353.081
			c18.933,0,35.125-13.144,37.666-30.575l14.913-102.335h16.556c5.702,0,10.325-4.622,10.325-10.324v-45.485
			C512,233.64,507.378,229.018,501.676,229.018z M150.807,164.458c0-33.014,26.857-59.871,59.87-59.871h15.628v15.628
			c0,33.013-26.858,59.87-59.87,59.87h-1.027l48.215-48.214c4.032-4.032,4.033-10.569,0-14.601c-4.032-4.032-10.569-4.032-14.601,0
			l-48.215,48.215V164.458z M381.842,164.456c0-33.012,26.857-59.869,59.871-59.869h15.628v15.628
			c0,33.013-26.858,59.87-59.87,59.87h-1.027l21.806-21.806c4.032-4.032,4.032-10.569,0-14.602c-4.032-4.032-10.569-4.032-14.602,0
			l-21.806,21.806V164.456z M298.377,131.87l48.215,48.214h-1.027c-33.013,0.002-59.87-26.856-59.87-59.868v-15.629h15.628
			c33.013,0,59.87,26.857,59.87,59.87v1.027l-48.215-48.215c-4.031-4.032-10.569-4.032-14.601,0
			C294.345,121.301,294.345,127.838,298.377,131.87z M67.341,131.872l48.214,48.214h-1.027c-33.01,0-59.869-26.858-59.869-59.87
			v-15.629h15.628c33.013,0,59.87,26.857,59.87,59.87v1.027L81.942,117.27c-4.032-4.032-10.569-4.032-14.602,0
			C63.308,121.302,63.309,127.839,67.341,131.872z M449.773,394.51c-1.073,7.356-8.481,12.904-17.233,12.904H79.459
			c-8.752,0-16.16-5.547-17.233-12.904l-14.479-99.358h416.505L449.773,394.51z M491.351,274.503H20.649v-24.836h470.702V274.503z"
			/>
	</g>
</g>
<g>
	<g>
		<path style="fill:#ffff;"  d="M444.659,117.269c-4.032-4.031-10.569-4.031-14.602,0l-2.637,2.637c-4.032,4.032-4.032,10.569,0,14.602
			c2.016,2.016,4.659,3.024,7.302,3.024c2.642,0,5.285-1.008,7.3-3.024l2.637-2.637C448.69,127.839,448.69,121.302,444.659,117.269z
			"/>
	</g>
</g>
<g>
</g>
<g>
</g>
<g>
</g>
<g>
</g>
<g>
</g>
<g>
</g>
<g>
</g>
<g>
</g>
<g>
</g>
<g>
</g>
<g>
</g>
<g>
</g>
<g>
</g>
<g>
</g>
<g>
</g>
</svg>
