<?xml version="1.0" encoding="utf-8"?>
<!-- Generator: Adobe Illustrator 27.0.0, SVG Export Plug-In . SVG Version: 6.00 Build 0)  -->
<svg version="1.1" id="Capa_1" xmlns="http://www.w3.org/2000/svg" xmlns:xlink="http://www.w3.org/1999/xlink" x="0px" y="0px"
	 viewBox="0 0 59.3 65.6" style="enable-background:new 0 0 59.3 65.6;" xml:space="preserve">
<g>
	<g>
		<path d="M29.5,55v-1.6c0-0.6,0.5-1.2,1.1-1.2C40.3,51.7,48,43.6,48,33.7c0-2-0.3-4-1-5.9l3.8-1.3c0.8,2.3,1.2,4.8,1.2,7.2
			c0,12-9.4,21.8-21.3,22.5C30.1,56.3,29.5,55.7,29.5,55z"/>
	</g>
	<g>
		<path d="M44,20.3c0.6,4,0.9,8.7,0.5,12.6c-0.1,0.5,0.6,0.8,0.9,0.4l4-4.9l6.2-1.2c0.5-0.1,0.6-0.8,0.1-1c-3.6-1.5-7.7-4-10.9-6.4
			C44.5,19.5,44,19.8,44,20.3z"/>
	</g>
</g>
<g>
	<g>
		<path d="M7.7,39.6C7.2,37.7,7,35.7,7,33.7c0-12.1,9.6-22,21.6-22.5c0.5,0,1,0.4,1,1v2.1c0,0.5-0.4,0.9-0.9,0.9
			C18.8,15.7,11,23.8,11,33.7c0,1.7,0.2,3.3,0.6,4.9L7.7,39.6z"/>
	</g>
	<g>
		<path d="M14.2,46.3c-0.4-4-0.4-8.8,0.2-12.6c0.1-0.5-0.5-0.8-0.9-0.4l-4.3,4.6L3,38.7c-0.5,0.1-0.6,0.7-0.1,0.9
			c3.5,1.7,7.4,4.4,10.5,7.1C13.7,47,14.2,46.7,14.2,46.3z"/>
	</g>
</g>
</svg>
