<?xml version="1.0" encoding="utf-8"?>
<!-- Generator: Adobe Illustrator 27.0.0, SVG Export Plug-In . SVG Version: 6.00 Build 0)  -->
<svg width="28px" height="28px" version="1.1" id="Capa_1" xmlns="http://www.w3.org/2000/svg" xmlns:xlink="http://www.w3.org/1999/xlink" x="0px" y="0px"
	 viewBox="0 0 59.3 65.6" style="enable-background:new 0 0 59.3 65.6;" xml:space="preserve">
<g>
	<g>
		<path d="M31.8,64.4c-16.4,1-30-11.7-30.5-27.8c0-0.5,0.4-0.9,0.9-0.9h2.3c0.5,0,0.9,0.4,0.9,0.9c0.5,13.7,12.2,24.6,26.1,23.7
			c11.8-0.7,21.6-9.9,23-21.7C56,25.5,47,13.7,34.3,11.5l0.7-4C49.5,10,59.8,23.1,58.7,38.1C57.5,52.2,46,63.5,31.8,64.4z"/>
	</g>
	<g>
		<path d="M24.1,10.8c4.7,1.7,10,4.2,14,7c0.6,0.4,1.3-0.2,1.1-0.9l-2.9-7.2l2.4-7.4c0.2-0.7-0.6-1.2-1.1-0.8
			c-3.8,3-8.9,5.9-13.5,7.9C23.5,9.7,23.5,10.6,24.1,10.8z"/>
	</g>
</g>
</svg>
