<?xml version="1.0" encoding="utf-8"?>
<!-- Generator: Adobe Illustrator 27.0.0, SVG Export Plug-In . SVG Version: 6.00 Build 0)  -->
<svg version="1.1" width="40" height="25" id="Capa_1" xmlns="http://www.w3.org/2000/svg" xmlns:xlink="http://www.w3.org/1999/xlink" x="0px" y="0px"
	 viewBox="0 0 29.6 31.3" style="enable-background:new 0 0 29.6 31.3;" xml:space="preserve">
<style type="text/css">
	.st0{fill:#282828;}
</style>
<g>
	<path class="st0" d="M12.7,24.1c-6.5,0-11.8-5.3-11.8-11.8S6.2,0.6,12.7,0.6c6.5,0,11.8,5.3,11.8,11.8S19.2,24.1,12.7,24.1z
		 M12.7,2.6c-5.4,0-9.8,4.4-9.8,9.8s4.4,9.8,9.8,9.8s9.8-4.4,9.8-9.8S18.1,2.6,12.7,2.6z"/>
</g>
<g>
	<rect x="22.7" y="18.1" transform="matrix(0.7071 -0.7071 0.7071 0.7071 -10.5525 23.9815)" class="st0" width="2" height="13.2"/>
</g>
<path class="st0" d="M12.6,5.2c0,0,4.2-1.5,6,3C18.6,8.2,15.2,4.7,12.6,5.2z"/>
</svg>
