<?xml version="1.0" encoding="utf-8"?>
<!-- Generator: Adobe Illustrator 27.0.0, SVG Export Plug-In . SVG Version: 6.00 Build 0)  -->
<svg version="1.1" id="Capa_1" xmlns="http://www.w3.org/2000/svg" xmlns:xlink="http://www.w3.org/1999/xlink" x="0px" y="0px"
	 viewBox="0 0 48.9 48.4" style="enable-background:new 0 0 48.9 48.4;" xml:space="preserve">
<style type="text/css">
	.st0{fill:#232323;}
</style>
<g>
	<path class="st0" d="M44.8,46.8c-0.5,0-1-0.2-1.4-0.6L2,4.8C1.2,4.1,1.2,2.8,2,2c0.8-0.8,2-0.8,2.8,0l41.4,41.4
		c0.8,0.8,0.8,2,0,2.8C45.8,46.6,45.3,46.8,44.8,46.8z"/>
</g>
<g>
	<path class="st0" d="M3.4,46.8c-0.5,0-1-0.2-1.4-0.6c-0.8-0.8-0.8-2,0-2.8L43.4,2c0.8-0.8,2-0.8,2.8,0c0.8,0.8,0.8,2,0,2.8
		L4.8,46.2C4.4,46.6,3.9,46.8,3.4,46.8z"/>
</g>
</svg>
