<?xml version="1.0" encoding="utf-8"?>
<!-- Generator: Adobe Illustrator 27.0.0, SVG Export Plug-In . SVG Version: 6.00 Build 0)  -->
<svg version="1.1" id="Capa_1" xmlns="http://www.w3.org/2000/svg" xmlns:xlink="http://www.w3.org/1999/xlink" x="0px" y="0px"
	 viewBox="0 0 21.6 10.4" style="enable-background:new 0 0 21.6 10.4;" xml:space="preserve">
<style type="text/css">
	.st0{fill:#232323;}
	.st1{fill:#FFFFFF;}
</style>
<path class="st0" d="M16.5,10H5.6C3,10,0.8,7.8,0.8,5.2v0c0-2.6,2.1-4.8,4.8-4.8h10.9c2.6,0,4.8,2.1,4.8,4.8v0
	C21.3,7.8,19.1,10,16.5,10z"/>
<g>
	<g>
		<g>
			<path class="st1" d="M4.8,6.8c-0.2,0-0.4-0.2-0.4-0.4v-4c0-0.2,0.2-0.4,0.4-0.4c0.2,0,0.4,0.2,0.4,0.4v4C5.2,6.7,5,6.8,4.8,6.8z"
				/>
		</g>
		<g>
			<path class="st1" d="M4.8,8.3c0.3-0.8,0.8-1.8,1.4-2.4L4.8,6.3L3.4,5.8C4,6.5,4.5,7.5,4.8,8.3z"/>
		</g>
	</g>
	<circle class="st1" cx="7.6" cy="6.9" r="0.3"/>
</g>
<g>
	<path class="st1" d="M9,3.7h1.4c0.8,0,1.4,0.5,1.4,1.3c0,0.8-0.5,1.3-1.4,1.3H9.7v1.2H9V3.7z M10.3,5.6C10.7,5.6,11,5.5,11,5
		c0-0.4-0.3-0.6-0.7-0.6H9.7v1.3H10.3z"/>
	<path class="st1" d="M12.2,3.7h1.4c1.1,0,1.9,0.8,1.9,1.9c0,1.1-0.8,1.9-1.9,1.9h-1.4V3.7z M13.6,6.9c0.7,0,1.1-0.5,1.1-1.2
		c0-0.7-0.4-1.2-1.1-1.2h-0.6v2.5H13.6z"/>
	<path class="st1" d="M15.9,3.7h2.2v0.7h-1.4v0.9H18v0.6h-1.3v1.6h-0.8V3.7z"/>
</g>
</svg>
