<?xml version="1.0" encoding="utf-8"?>
<!-- Generator: Adobe Illustrator 27.0.0, SVG Export Plug-In . SVG Version: 6.00 Build 0)  -->
<svg version="1.1" id="Capa_1" xmlns="http://www.w3.org/2000/svg" xmlns:xlink="http://www.w3.org/1999/xlink" x="0px" y="0px"
	 viewBox="0 0 29.6 10.4" style="enable-background:new 0 0 29.6 10.4;" xml:space="preserve">
<style type="text/css">
	.st0{fill:#232323;}
	.st1{fill:#FFFFFF;}
</style>
<path class="st0" d="M24.2,10H5.4c-2.6,0-4.8-2.1-4.8-4.8v0c0-2.6,2.1-4.8,4.8-4.8h18.7c2.6,0,4.8,2.1,4.8,4.8v0
	C29,7.8,26.8,10,24.2,10z"/>
<g>
	<g>
		<g>
			<path class="st1" d="M6,6.8c-0.2,0-0.4-0.2-0.4-0.4v-4c0-0.2,0.2-0.4,0.4-0.4c0.2,0,0.4,0.2,0.4,0.4v4C6.4,6.7,6.2,6.8,6,6.8z"/>
		</g>
		<g>
			<path class="st1" d="M6,8.3c0.3-0.8,0.8-1.8,1.4-2.4L6,6.3L4.6,5.8C5.2,6.5,5.7,7.5,6,8.3z"/>
		</g>
	</g>
	<g>
		<path class="st1" d="M10,3.4h2.2v0.7h-1.5V5H12v0.7h-1.2v0.9h1.5v0.7H10V3.4z"/>
		<path class="st1" d="M14.3,6l-0.9,1.3h-0.9l1.3-2l-1.3-1.9h0.9l0.8,1.3l0.8-1.3H16l-1.3,1.9l1.3,2h-0.9L14.3,6z"/>
		<path class="st1" d="M16,5.3c0-1.2,0.9-2,2-2c0.5,0,1.2,0.2,1.6,0.8L19,4.6C18.8,4.2,18.4,4,18,4c-0.7,0-1.3,0.5-1.3,1.3
			c0,0.8,0.6,1.3,1.3,1.3c0.4,0,0.8-0.1,1-0.5l0.5,0.4c-0.4,0.7-1,0.8-1.6,0.8C16.9,7.3,16,6.5,16,5.3z"/>
		<path class="st1" d="M20,3.4h2.2v0.7h-1.5V5H22v0.7h-1.2v0.9h1.5v0.7H20V3.4z"/>
		<path class="st1" d="M22.7,3.4h0.8v3.2H25v0.7h-2.3V3.4z"/>
	</g>
	<circle class="st1" cx="8.8" cy="6.9" r="0.3"/>
</g>
</svg>
