<?xml version="1.0" encoding="utf-8"?>
<!-- Generator: Adobe Illustrator 27.0.0, SVG Export Plug-In . SVG Version: 6.00 Build 0)  -->
<svg width="20px" height="20px" version="1.1" id="Capa_1" xmlns="http://www.w3.org/2000/svg" xmlns:xlink="http://www.w3.org/1999/xlink" x="0px" y="0px"
	 viewBox="0 0 59.3 59" style="enable-background:new 0 0 59.3 59;" xml:space="preserve">
<style type="text/css">
	.st0{fill:#3C3C3B;}
</style>
<g>
	<path class="st0" d="M54.1,56.5H3.3c-0.8,0-1.5-0.7-1.5-1.5V5.9c0-0.8,0.7-1.5,1.5-1.5h29.8c0.8,0,1.5,0.7,1.5,1.5
		s-0.7,1.5-1.5,1.5H4.8v46.1h47.8V27.9c0-0.8,0.7-1.5,1.5-1.5s1.5,0.7,1.5,1.5V55C55.6,55.9,54.9,56.5,54.1,56.5z"/>
</g>
<g>
	<path class="st0" d="M16.4,44.7c-0.4,0-0.8-0.2-1.1-0.5c-0.4-0.4-0.5-0.9-0.4-1.5l3.9-13.5c0.1-0.2,0.2-0.5,0.4-0.6L45.4,2.5
		c0.4-0.4,1-0.5,1.5-0.4c11.9,4.1,11.2,12,11.2,12.4c0,0.3-0.2,0.7-0.4,0.9L32.5,40.6c-0.2,0.2-0.4,0.3-0.7,0.4l-15,3.6
		C16.6,44.7,16.5,44.7,16.4,44.7z M21.6,30.5l-3.1,10.6l12.1-2.9l24.5-24.5c-0.1-1.4-1-5.6-8.3-8.4L21.6,30.5z"/>
</g>
<g>
	<path class="st0" d="M31.9,29.7c-0.4,0-0.8-0.1-1.1-0.4c-0.6-0.6-0.6-1.5,0-2.1L40,18c0.6-0.6,1.5-0.6,2.1,0s0.6,1.5,0,2.1L33,29.3
		C32.7,29.5,32.3,29.7,31.9,29.7z"/>
</g>
<g>
	<path class="st0" d="M31.3,41.1c-0.4,0-0.8-0.1-1.1-0.4L19.8,30.2c-0.6-0.6-0.6-1.5,0-2.1s1.5-0.6,2.1,0l10.5,10.5
		c0.6,0.6,0.6,1.5,0,2.1C32.1,40.9,31.7,41.1,31.3,41.1z"/>
</g>
<g>
	<path class="st0" d="M51.7,20.1c-0.4,0-0.8-0.1-1.1-0.4L40.5,9.5c-0.6-0.6-0.6-1.5,0-2.1s1.5-0.6,2.1,0l10.1,10.1
		c0.6,0.6,0.6,1.5,0,2.1C52.5,20,52.1,20.1,51.7,20.1z"/>
</g>
</svg>
