<?xml version="1.0" encoding="utf-8"?>
<!-- Generator: Adobe Illustrator 27.0.0, SVG Export Plug-In . SVG Version: 6.00 Build 0)  -->
<svg version="1.1" width="20" id="Capa_1" xmlns="http://www.w3.org/2000/svg" xmlns:xlink="http://www.w3.org/1999/xlink" x="0px" y="0px"
	 viewBox="0 0 149.2 194.3" style="enable-background:new 0 0 149.2 194.3;" xml:space="preserve">
<style type="text/css">
	.st0{fill:#3BA4D8;}
</style>
<g>
	<path class="st0" d="M24.1,193.3c-9.4-3.3-12.5-10.1-12.4-19.8c0.3-36,0.1-72,0.2-107.9c0-3-0.1-5.1-3.7-6.3c-4-1.4-6.1-5-6.3-9.3
		c-0.1-4-0.1-8-0.1-11.9c0.1-8,4.4-12.4,12.4-12.6c9.2-0.2,18.5-0.2,27.7,0c3.5,0.1,5-0.8,6.1-4.4C51,10.7,58.1,4.5,68.4,1.8
		c0.7-0.2,1.3-0.5,1.9-0.8c2.8,0,5.7,0,8.5,0c6.8,2,13.3,4.6,17.4,10.6c2.2,3.2,4.1,6.8,5.3,10.5c0.8,2.6,2,3.2,4.4,3.2
		c9.2-0.1,18.5-0.1,27.7,0c10.1,0,14.4,4.4,14.4,14.6c0,2.4-0.1,4.8,0,7.3c0.3,6.2-2.1,10.6-8,13.1c-1.1,0.5-2,2.9-2,4.4
		c-0.1,20.6-0.1,41.2-0.1,61.9c0,15.8-0.3,31.6,0.1,47.4c0.2,9.6-3.2,16.1-12.4,19.4C91.9,193.3,58,193.3,24.1,193.3z M129,61.2
		c-36.5,0-72.3,0-108.7,0c0,1.9,0,3.6,0,5.2c0,32.7,0,65.5,0,98.2c0,4.3-0.1,8.5,0,12.8c0.2,4.7,2.6,7.3,7.1,7.3
		c31.5,0.1,62.9,0.1,94.4,0c4.7,0,7.2-2.8,7.2-7.6c0-36.9,0-73.7,0-110.6C129,64.9,129,63.2,129,61.2z M74.5,52.1
		c19.5,0,39,0,58.5,0c6,0,6-0.1,6-5.8c0-2,0-4,0-6c0-6-0.2-6.1-6.3-6.1c-36.7,0-73.4,0-110.1,0c-14.2,0-11.9-1.7-12,11.8
		c-0.1,5.7,0.3,6.1,6,6.1C35.8,52.1,55.2,52.1,74.5,52.1z M56,25c12.6,0,24.8,0,37.1,0c-2-9.1-9.4-15.1-18.3-15.2
		C66,9.7,58.2,15.9,56,25z"/>
	<path class="st0" d="M70.9,123.8c0-12.1,0-24.2,0-36.3c0-3.2,0.6-6,4.4-5.9c3.4,0.1,4.1,2.9,4.1,5.9c0,24.2,0,48.3,0,72.5
		c0,3.2-0.8,5.9-4.5,5.9c-3.7,0-3.9-3-3.9-5.8C70.9,147.9,70.9,135.8,70.9,123.8z"/>
	<path class="st0" d="M40.3,123.6c0-11.9,0.1-23.9,0-35.8c0-3.2,0.6-6.1,4.2-6.2c3.6-0.1,4.4,2.8,4.4,6c0,24,0,48.1,0,72.1
		c0,3.1-0.6,6.1-4.3,6.1c-4.1,0.1-4.4-3.2-4.3-6.4C40.4,147.5,40.3,135.6,40.3,123.6z"/>
	<path class="st0" d="M109.7,123.6c0,12.1,0,24.2,0,36.2c0,3.2-0.6,6-4.3,5.9c-3.5,0-4.1-2.9-4.1-5.8c0-24.2,0-48.3,0-72.5
		c0-3.2,0.7-6.1,4.4-6c3.3,0.1,4.1,2.7,4.1,5.8C109.7,99.5,109.7,111.6,109.7,123.6z"/>
</g>
</svg>
