<?xml version="1.0" encoding="utf-8"?>
<!-- Generator: Adobe Illustrator 27.0.0, SVG Export Plug-In . SVG Version: 6.00 Build 0)  -->
<svg version="1.1" id="Capa_1" xmlns="http://www.w3.org/2000/svg" xmlns:xlink="http://www.w3.org/1999/xlink" x="0px" y="0px"
	 viewBox="0 0 19.6 19.5" style="enable-background:new 0 0 19.6 19.5;" xml:space="preserve">
<g>
	<path d="M16.6,19.5H2.3c-0.8,0-1.4-0.6-1.4-1.4V1.7c0-0.4,0.1-0.7,0.4-1c0.3-0.3,0.6-0.4,1-0.4l11.2,0c0.3,0,0.6,0.1,0.9,0.3l3,2.7
		c0.3,0.3,0.5,0.6,0.5,1v13.7C17.9,18.9,17.3,19.5,16.6,19.5z M2.3,1.4c-0.1,0-0.2,0-0.2,0.1C2.1,1.5,2,1.6,2,1.7v16.4
		c0,0.2,0.1,0.3,0.3,0.3h14.2c0.2,0,0.3-0.1,0.3-0.3V4.4c0-0.1,0-0.2-0.1-0.2l-3-2.7c-0.1,0-0.1-0.1-0.2-0.1L2.3,1.4L2.3,1.4z"/>
</g>
<g>
	<path d="M10.8,4.8H5.2c-0.8,0-1.4-0.6-1.4-1.4V0.9H5v2.5c0,0.2,0.1,0.3,0.3,0.3h5.6c0.2,0,0.3-0.1,0.3-0.3V1h1.1v2.5
		C12.2,4.2,11.6,4.8,10.8,4.8z"/>
</g>
<g>
	<path d="M4.5,19H3.4v-6.9c0-0.6,0.5-1.1,1.1-1.1h9.2c0.6,0,1.1,0.5,1.1,1.1v6.8h-1.1v-6.8l-9.2,0L4.5,19z"/>
</g>
<g>
	<path d="M11.8,14H6c-0.3,0-0.5-0.2-0.5-0.5c0-0.3,0.2-0.5,0.5-0.5h5.8c0.3,0,0.5,0.2,0.5,0.5C12.3,13.8,12.1,14,11.8,14z"/>
</g>
<g>
	<path d="M11.8,15.8H6c-0.3,0-0.5-0.2-0.5-0.5s0.2-0.5,0.5-0.5h5.8c0.3,0,0.5,0.2,0.5,0.5S12.1,15.8,11.8,15.8z"/>
</g>
<g>
	<path d="M11.8,17.7H6c-0.3,0-0.5-0.2-0.5-0.5s0.2-0.5,0.5-0.5h5.8c0.3,0,0.5,0.2,0.5,0.5S12.1,17.7,11.8,17.7z"/>
</g>
</svg>
