<?xml version="1.0" encoding="utf-8"?>
<!-- Generator: Adobe Illustrator 27.0.0, SVG Export Plug-In . SVG Version: 6.00 Build 0)  -->
<svg width="20px" height="20px" version="1.1" id="Capa_1" xmlns="http://www.w3.org/2000/svg" xmlns:xlink="http://www.w3.org/1999/xlink" x="0px" y="0px"
	 viewBox="0 0 290.2 263.8" style="enable-background:new 0 0 290.2 263.8;" xml:space="preserve">
<style type="text/css">
	.st0{fill:#1A1A1A;}
</style>
<g>
	<g>
		<path class="st0" d="M211.9,238.1H10.1V36.3h201.8V238.1z M26.8,221.4h168.4V53H26.8V221.4z"/>
	</g>
	<path class="st0" d="M156.6,129.8v-1.7c-31.2,0-33.2-32-33.3-33.4l-1.7,0.1H120c0,31.2-32,33.2-33.4,33.3l0.1,1.7v1.7
		c31.2,0,33.2,32,33.3,33.4l1.7-0.1h1.7c0-31.2,32-33.2,33.4-33.3L156.6,129.8z M121.3,154.3c-2.8-9-9.3-21.1-24.2-25
		c9-2.8,21.1-9.3,25-24.2c2.8,9,9.3,21.1,24.2,25C137.3,132.9,125.2,139.4,121.3,154.3z"/>
	<path class="st0" d="M283.9,77.1v-1.7c-31.2,0-33.2-32-33.3-33.4l-1.7,0.1h-1.7c0,31.2-32,33.2-33.4,33.3l0.1,1.7v1.7
		c31.2,0,33.2,32,33.3,33.4l1.7-0.1h1.7c0-31.2,32-33.2,33.4-33.3L283.9,77.1z M248.6,101.6c-2.8-9-9.3-21.1-24.2-25
		c9-2.8,21.1-9.3,25-24.2c2.8,9,9.3,21.1,24.2,25C264.6,80.2,252.5,86.7,248.6,101.6z"/>
</g>
</svg>
