<?xml version="1.0" encoding="utf-8"?>
<!-- Generator: Adobe Illustrator 27.0.0, SVG Export Plug-In . SVG Version: 6.00 Build 0)  -->
<svg version="1.1" id="Capa_1" xmlns="http://www.w3.org/2000/svg" xmlns:xlink="http://www.w3.org/1999/xlink" x="0px" y="0px"
	 viewBox="0 0 59.3 59" style="enable-background:new 0 0 59.3 59;" xml:space="preserve">
<style type="text/css">
	.st0{fill:#3C3C3B;}
</style>
<g>
	<g>
		<path class="st0" d="M51.2,31H8c-0.8,0-1.5-0.7-1.5-1.5S7.2,28,8,28h43.2c0.8,0,1.5,0.7,1.5,1.5S52.1,31,51.2,31z"/>
	</g>
	<g>
		<path class="st0" d="M1.5,29.8c2.9,1.1,6.2,2.9,8.7,4.7c0.3,0.2,0.6-0.1,0.5-0.4L9,29.6c0-0.1,0-0.2,0-0.2l1.6-4.5
			c0.1-0.3-0.2-0.6-0.5-0.4c-2.4,1.9-5.8,3.6-8.7,4.7C1.2,29.3,1.2,29.7,1.5,29.8z"/>
	</g>
	<g>
		<path class="st0" d="M57.8,29.8c-2.9,1.1-6.2,2.9-8.7,4.7c-0.3,0.2-0.6-0.1-0.5-0.4l1.6-4.5c0-0.1,0-0.2,0-0.2l-1.6-4.5
			c-0.1-0.3,0.2-0.6,0.5-0.4c2.4,1.9,5.8,3.6,8.7,4.7C58,29.3,58,29.7,57.8,29.8z"/>
	</g>
</g>
<g>
	<g>
		<path class="st0" d="M29.6,52.6c-0.8,0-1.5-0.7-1.5-1.5V7.9c0-0.8,0.7-1.5,1.5-1.5s1.5,0.7,1.5,1.5v43.2
			C31.1,52,30.5,52.6,29.6,52.6z"/>
	</g>
	<g>
		<path class="st0" d="M29.3,1.4c-1.1,2.9-2.9,6.2-4.7,8.7c-0.2,0.3,0.1,0.6,0.4,0.5l4.5-1.6c0.1,0,0.2,0,0.2,0l4.5,1.6
			c0.3,0.1,0.6-0.2,0.4-0.5c-1.9-2.4-3.6-5.8-4.7-8.7C29.8,1.1,29.4,1.1,29.3,1.4z"/>
	</g>
	<g>
		<path class="st0" d="M29.3,57.7c-1.1-2.9-2.9-6.2-4.7-8.7c-0.2-0.3,0.1-0.6,0.4-0.5l4.5,1.6c0.1,0,0.2,0,0.2,0l4.5-1.6
			c0.3-0.1,0.6,0.2,0.4,0.5c-1.9,2.4-3.6,5.8-4.7,8.7C29.8,57.9,29.4,57.9,29.3,57.7z"/>
	</g>
</g>
</svg>
