<?xml version="1.0" encoding="utf-8"?>
<!-- Generator: Adobe Illustrator 27.0.0, SVG Export Plug-In . SVG Version: 6.00 Build 0)  -->
<svg version="1.1" id="Capa_1" xmlns="http://www.w3.org/2000/svg" xmlns:xlink="http://www.w3.org/1999/xlink" x="0px" y="0px"
	 viewBox="0 0 77.8 66.9" style="enable-background:new 0 0 77.8 66.9;" xml:space="preserve">
<style type="text/css">
	.st0{fill:#3C3C3B;}
</style>
<g>
	<path class="st0" d="M70.8,65.9H33.7c-3.2,0-5.8-2.6-5.8-5.8V44.8h5v15.3c0,0.4,0.4,0.8,0.8,0.8h37.1c0.4,0,0.8-0.4,0.8-0.8V7.9
		c0-0.4-0.4-0.8-0.8-0.8H33.7c-0.4,0-0.8,0.4-0.8,0.8v17.3h-5V7.9c0-3.2,2.6-5.8,5.8-5.8h37.1c3.2,0,5.8,2.6,5.8,5.8v52.2
		C76.7,63.3,74,65.9,70.8,65.9z"/>
</g>
<polygon class="st0" points="64.9,32.7 12.2,32.7 20.1,25.4 16.7,21.8 1.9,35.2 16.8,47.7 20,43.9 12.6,37.7 64.9,37.7 "/>
</svg>
