<?xml version="1.0" encoding="utf-8"?>
<!-- Generator: Adobe Illustrator 27.0.0, SVG Export Plug-In . SVG Version: 6.00 Build 0)  -->
<svg version="1.1" id="Capa_1" xmlns="http://www.w3.org/2000/svg" xmlns:xlink="http://www.w3.org/1999/xlink" x="0px" y="0px"
	 viewBox="0 0 48.9 26.6" style="enable-background:new 0 0 48.9 26.6;" xml:space="preserve">
<style type="text/css">
	.st0{fill:#212121;}
	.st1{fill:#FFFFFF;}
</style>
<g>
	<path class="st0" d="M24.2,25.8c-7.6,0-14.8-3.9-21.4-11.6l-1.1-1.3l1-1.3C3,11.2,10.9,1.5,23,0.8C31,0.4,38.9,4,46.4,11.5l1.3,1.3
		l-1.1,1.4c-0.4,0.5-9.3,11.4-21.9,11.6C24.5,25.8,24.3,25.8,24.2,25.8z M7,12.9c5.6,6,11.4,9,17.5,8.9c8.3-0.1,15-6.1,17.7-8.8
		c-6.2-5.8-12.6-8.5-18.9-8.1C15.3,5.3,9.3,10.5,7,12.9z"/>
</g>
<circle class="st0" cx="24.4" cy="10.6" r="9.2"/>
<circle class="st1" cx="19.6" cy="8.6" r="1.9"/>
</svg>
