<?xml version="1.0" encoding="iso-8859-1"?>
<!-- Generator: Adobe Illustrator 19.0.0, SVG Export Plug-In . SVG Version: 6.00 Build 0)  -->
<svg version="1.1" width="32" height="32" id="Layer_1" xmlns="http://www.w3.org/2000/svg" xmlns:xlink="http://www.w3.org/1999/xlink" x="0px"
	y="0px" viewBox="0 0 512 512" style="enable-background:new 0 0 512 512;" xml:space="preserve">
	<circle style="fill:#EA8953;" cx="256" cy="256" r="256" />
	<path style="opacity:0.1;enable-background:new    ;" d="M512,256c0-14.939-1.355-29.557-3.808-43.797l-105.52-105.52H109.339
	v24.107l21.493,21.493v140.8h-21.493v24.107l190.917,190.917C420.539,487.136,512,382.283,512,256z" />
	<path style="fill:#2F4859;" d="M311.243,396.176l-49.909-48.517v-42.507c0-2.949-2.384-5.333-5.333-5.333s-5.333,2.384-5.333,5.333
	v42.507l-49.904,48.517c-2.112,2.053-2.155,5.429-0.107,7.541c2.053,2.101,5.424,2.165,7.541,0.101l42.469-41.285V400
	c0,2.949,2.384,5.333,5.333,5.333s5.333-2.384,5.333-5.333v-37.467l42.475,41.291c1.035,1.008,2.379,1.509,3.717,1.509
	c1.392,0,2.779-0.544,3.824-1.616C313.397,401.605,313.349,398.229,311.243,396.176z" />
	<rect x="109.333" y="106.667" style="fill:#64798A;" width="293.333" height="24.123" />
	<rect x="130.821" y="130.789" style="fill:#FFFFFF;" width="250.363" height="162.299" />
	<g>
		<rect x="109.333" y="293.088" style="fill:#64798A;" width="293.333" height="24.123" />
		<path style="fill:#64798A;" d="M162.928,221.701c0.155,9.072,5.947,12.811,12.656,12.811c4.8,0,7.696-0.837,10.213-1.904
		l1.141,4.795c-2.363,1.067-6.405,2.288-12.267,2.288c-11.355,0-18.139-7.472-18.139-18.597c0-11.125,6.555-19.888,17.301-19.888
		c12.037,0,15.243,10.592,15.243,17.376c0,1.371-0.155,2.437-0.229,3.12H162.928z M182.592,216.907
		c0.075-4.267-1.755-10.901-9.296-10.901c-6.784,0-9.755,6.256-10.288,10.901H182.592z" />
		<path style="fill:#64798A;"
			d="M194.88,213.243v-4.571h39.323v4.571H194.88z M194.88,228.181v-4.576h39.323v4.576H194.88z" />
		<path style="fill:#64798A;" d="M242.853,212.027c0-3.808-0.08-6.939-0.309-9.984h5.872l0.304,5.947h0.229
		c2.059-3.504,5.483-6.784,11.584-6.784c5.024,0,8.837,3.045,10.437,7.392h0.155c1.141-2.059,2.587-3.653,4.112-4.805
		c2.208-1.675,4.645-2.587,8.155-2.587c4.88,0,12.117,3.2,12.117,16.005v21.717h-6.549v-20.88c0-7.088-2.592-11.355-8.005-11.355
		c-3.808,0-6.784,2.816-7.925,6.101c-0.304,0.912-0.533,2.128-0.533,3.349v22.784h-6.555v-22.101c0-5.867-2.592-10.133-7.701-10.133
		c-4.187,0-7.237,3.349-8.304,6.709c-0.384,0.987-0.533,2.133-0.533,3.275v22.251h-6.555v-26.901H242.853z" />
		<path style="fill:#64798A;"
			d="M332.736,237.557c-1.755,0.912-5.643,2.133-10.597,2.133c-11.125,0-18.363-7.547-18.363-18.827
		c0-11.355,7.771-19.584,19.813-19.584c3.957,0,7.467,0.992,9.296,1.904l-1.525,5.184c-1.595-0.912-4.112-1.749-7.771-1.749
		c-8.459,0-13.029,6.251-13.029,13.941c0,8.539,5.488,13.797,12.8,13.797c3.808,0,6.325-0.992,8.229-1.829L332.736,237.557z" />
		<path style="fill:#64798A;" d="M337.04,213.536v-2.395l3.067-2.981c7.371-7.019,10.699-10.747,10.747-15.099
		c0-2.928-1.419-5.643-5.733-5.643c-2.619,0-4.789,1.333-6.123,2.443l-1.243-2.757c2-1.685,4.843-2.928,8.165-2.928
		c6.219,0,8.837,4.261,8.837,8.389c0,5.333-3.861,9.637-9.947,15.499l-2.309,2.128v0.091h12.971v3.237H337.04V213.536z" />
	</g>
	<g>
	</g>
	<g>
	</g>
	<g>
	</g>
	<g>
	</g>
	<g>
	</g>
	<g>
	</g>
	<g>
	</g>
	<g>
	</g>
	<g>
	</g>
	<g>
	</g>
	<g>
	</g>
	<g>
	</g>
	<g>
	</g>
	<g>
	</g>
	<g>
	</g>
</svg>