<?xml version="1.0" ?><svg width="32" height="32" viewBox="0 0 64 64" xmlns="http://www.w3.org/2000/svg">
  <defs>
    <style>
      .cls-1 {
        fill: #d8d8fc;
      }

      .cls-2 {
        fill: #2c3b73;
      }

      .cls-3 {
        fill: #f2f2fc;
      }

      .cls-4 {
        fill: #61729b;
      }

      .cls-5 {
        fill: #4bb9ec;
      }

      .cls-6 {
        fill: #fdbf00;
      }
    </style>
  </defs>
  <title />
  <g data-name="find discount" id="find_discount">
    <path class="cls-1"
      d="M5,59H59V13H5ZM42.667,15a14.334,14.334,0,0,1,2.527,28.444V48.3h.527a1,1,0,0,1,1,1V56a1,1,0,0,1-1,1H39.612a1,1,0,0,1-1-1V49.3a1,1,0,0,1,1-1h.527V43.444A14.334,14.334,0,0,1,42.667,15ZM7,16a1,1,0,0,1,1-1H24a1,1,0,0,1,1,1V28a1,1,0,0,1-1,1H8a1,1,0,0,1-1-1ZM8,31H24a1,1,0,0,1,0,2H8a1,1,0,0,1,0-2ZM7,40a1,1,0,0,1,1-1H24a1,1,0,0,1,1,1V52a1,1,0,0,1-1,1H8a1,1,0,0,1-1-1ZM8,55H24a1,1,0,0,1,0,2H8a1,1,0,0,1,0-2Z" />
    <path class="cls-2"
      d="M5,11H59V5H5ZM24,7h4a1,1,0,0,1,0,2H24a1,1,0,0,1,0-2ZM16,7h4a1,1,0,0,1,0,2H16a1,1,0,0,1,0-2ZM8,7h4a1,1,0,0,1,0,2H8A1,1,0,0,1,8,7Z" />
    <path d="M60,3H4A1,1,0,0,0,3,4V60a1,1,0,0,0,1,1H60a1,1,0,0,0,1-1V4A1,1,0,0,0,60,3ZM59,59H5V13H59Zm0-48H5V5H59Z" />
    <path class="cls-3" d="M8,9h4a1,1,0,0,0,0-2H8A1,1,0,0,0,8,9Z" />
    <path class="cls-3" d="M16,9h4a1,1,0,0,0,0-2H16a1,1,0,0,0,0,2Z" />
    <path class="cls-3" d="M24,9h4a1,1,0,0,0,0-2H24a1,1,0,0,0,0,2Z" />
    <path class="cls-4"
      d="M42.667,41.667A12.333,12.333,0,1,0,30.333,29.333,12.34,12.34,0,0,0,42.667,41.667Zm0-22.857A10.523,10.523,0,1,1,32.143,29.333,10.528,10.528,0,0,1,42.667,18.81Z" />
    <path class="cls-5"
      d="M42.667,37.857a8.523,8.523,0,1,0-8.524-8.524A8.528,8.528,0,0,0,42.667,37.857ZM48.4,32.49a2.578,2.578,0,1,1-2.578-2.578A2.579,2.579,0,0,1,48.4,32.49Zm-3.41-8.446a1,1,0,1,1,1.664,1.109l-6.313,9.47a1,1,0,0,1-1.664-1.11ZM39.51,23.6a2.578,2.578,0,1,1-2.578,2.579A2.58,2.58,0,0,1,39.51,23.6Z" />
    <circle class="cls-5" cx="45.823" cy="32.49" r="0.578" />
    <circle class="cls-5" cx="39.51" cy="26.177" r="0.578" />
    <path
      d="M42.667,39.857A10.523,10.523,0,1,0,32.143,29.333,10.528,10.528,0,0,0,42.667,39.857Zm0-19.047a8.523,8.523,0,1,1-8.524,8.523A8.527,8.527,0,0,1,42.667,20.81Z" />
    <rect class="cls-1" height="4.635" width="1.055" x="42.139" y="43.667" />
    <rect class="cls-4" height="4.698" width="4.109" x="40.612" y="50.302" />
    <path
      d="M40.139,43.444V48.3h-.527a1,1,0,0,0-1,1V56a1,1,0,0,0,1,1h6.109a1,1,0,0,0,1-1V49.3a1,1,0,0,0-1-1h-.527V43.444a14.333,14.333,0,1,0-5.055,0ZM42.667,17A12.333,12.333,0,1,1,30.333,29.333,12.339,12.339,0,0,1,42.667,17Zm2.055,38H40.612V50.3h4.109Zm-1.527-6.7H42.139V43.667h1.055Z" />
    <rect class="cls-5" height="10" width="14" x="9" y="17" />
    <path d="M8,29H24a1,1,0,0,0,1-1V16a1,1,0,0,0-1-1H8a1,1,0,0,0-1,1V28A1,1,0,0,0,8,29ZM9,17H23V27H9Z" />
    <rect class="cls-6" height="10" width="14" x="9" y="41" />
    <path d="M8,53H24a1,1,0,0,0,1-1V40a1,1,0,0,0-1-1H8a1,1,0,0,0-1,1V52A1,1,0,0,0,8,53ZM9,41H23V51H9Z" />
    <path d="M8,33H24a1,1,0,0,0,0-2H8a1,1,0,0,0,0,2Z" />
    <path d="M8,57H24a1,1,0,0,0,0-2H8a1,1,0,0,0,0,2Z" />
    <path
      d="M39.51,28.755a2.578,2.578,0,1,0-2.578-2.578A2.579,2.579,0,0,0,39.51,28.755Zm0-3.157a.578.578,0,1,1-.578.579A.579.579,0,0,1,39.51,25.6Z" />
    <path
      d="M43.245,32.49a2.578,2.578,0,1,0,2.578-2.578A2.579,2.579,0,0,0,43.245,32.49Zm3.156,0a.578.578,0,1,1-.578-.578A.578.578,0,0,1,46.4,32.49Z" />
    <path d="M38.955,34.9a1,1,0,0,0,1.387-.277l6.313-9.47a1,1,0,1,0-1.664-1.109l-6.313,9.469A1,1,0,0,0,38.955,34.9Z" />
  </g>
</svg>