<?xml version="1.0" encoding="utf-8"?>
<!-- Generator: Adobe Illustrator 27.0.0, SVG Export Plug-In . SVG Version: 6.00 Build 0)  -->
<svg width="28px" height="28px" version="1.1" id="Capa_1" xmlns="http://www.w3.org/2000/svg" xmlns:xlink="http://www.w3.org/1999/xlink" x="0px" y="0px"
	 viewBox="0 0 331.4 363.6" style="enable-background:new 0 0 331.4 363.6;" xml:space="preserve">
<style type="text/css">
	.st0{fill:none;stroke:#FFFFFF;stroke-width:13;stroke-linecap:round;stroke-linejoin:round;stroke-miterlimit:10;}
	.st1{fill:none;stroke:#FFFFFF;stroke-width:13;stroke-miterlimit:10;}
	.st2{fill:#FFFFFF;}
	.st3{fill:none;stroke:#FFFFFF;stroke-width:10;stroke-linecap:round;stroke-linejoin:round;stroke-miterlimit:10;}
</style>
<path class="st0" d="M35,42.4v282.9c0,16.8,13.6,30.4,30.4,30.4h198c16.8,0,30.4-13.6,30.4-30.4V101.8l-90-90L65.3,12
	C48.6,12.1,35,25.7,35,42.4z"/>
<circle class="st0" cx="119.3" cy="89.6" r="22.6"/>
<path class="st0" d="M157,174.4c0,0,3.1-40.3-37.2-40.3s-38.5,38.5-38.5,38.5"/>
<line class="st0" x1="83.9" y1="222.7" x2="188.2" y2="222.7"/>
<line class="st0" x1="85.1" y1="283.7" x2="247.4" y2="283.7"/>
<path class="st0" d="M201,13.3V82c0,12.6,10.2,22.9,22.9,22.9h70.5"/>
</svg>
