<?xml version="1.0" encoding="utf-8"?>
<!-- Generator: Adobe Illustrator 27.0.0, SVG Export Plug-In . SVG Version: 6.00 Build 0)  -->
<svg width="28px" height="28px" version="1.1" id="Capa_1" xmlns="http://www.w3.org/2000/svg" xmlns:xlink="http://www.w3.org/1999/xlink" x="0px" y="0px"
	 viewBox="0 0 331.4 363.6" style="enable-background:new 0 0 331.4 363.6;" xml:space="preserve">
<style type="text/css">
	.st0{fill:none;stroke:#FFFFFF;stroke-width:13;stroke-linecap:round;stroke-linejoin:round;stroke-miterlimit:10;}
	.st1{fill:none;stroke:#FFFFFF;stroke-width:13;stroke-miterlimit:10;}
	.st2{fill:#FFFFFF;}
	.st3{fill:none;stroke:#FFFFFF;stroke-width:10;stroke-linecap:round;stroke-linejoin:round;stroke-miterlimit:10;}
</style>
<path class="st0" d="M143.7,198.4h139.6c9.2,0,16.6,7.4,16.6,16.6v120.2c0,9.2-7.4,16.6-16.6,16.6h-243c-9.2,0-16.6-7.4-16.6-16.6
	V183.3c0-9.2,7.4-16.6,16.6-16.6h80.8L143.7,198.4z"/>
<path class="st0" d="M279,197.2V37.2c0-14.7-11.9-26.7-26.7-26.7H70.8c-14.7,0-26.7,11.9-26.7,26.7v128.6"/>
<path class="st0" d="M228.8,315.5H93.7c-4.9,0-8.8-4-8.8-8.8v-55.9c0-4.9,4-8.8,8.8-8.8h135.1c4.9,0,8.8,4,8.8,8.8v55.9
	C237.7,311.6,233.7,315.5,228.8,315.5z"/>
<line class="st0" x1="45.6" y1="132.2" x2="134.5" y2="132.2"/>
<line class="st0" x1="45.6" y1="53.5" x2="134.5" y2="53.5"/>
<line class="st0" x1="88.3" y1="93.7" x2="157.3" y2="93.7"/>
<polygon class="st3" points="224,117.4 232.8,135.1 252.3,137.9 238.2,151.7 241.5,171.2 224,162 206.6,171.2 209.9,151.7 
	195.8,137.9 215.3,135.1 "/>
<polygon class="st3" points="224,37.7 232.8,55.4 252.3,58.2 238.2,72 241.5,91.4 224,82.3 206.6,91.4 209.9,72 195.8,58.2 
	215.3,55.4 "/>
</svg>
