<?xml version="1.0" encoding="utf-8"?>
<!-- Generator: Adobe Illustrator 27.0.0, SVG Export Plug-In . SVG Version: 6.00 Build 0)  -->
<svg width="28px" height="28px" version="1.1" id="Capa_1" xmlns="http://www.w3.org/2000/svg" xmlns:xlink="http://www.w3.org/1999/xlink" x="0px" y="0px"
	 viewBox="0 0 331.4 363.6" style="enable-background:new 0 0 331.4 363.6;" xml:space="preserve">
<style type="text/css">
	.st0{fill:none;stroke:#FFFFFF;stroke-width:13;stroke-linecap:round;stroke-linejoin:round;stroke-miterlimit:10;}
	.st1{fill:none;stroke:#FFFFFF;stroke-width:13;stroke-miterlimit:10;}
	.st2{fill:#FFFFFF;}
	.st3{fill:none;stroke:#FFFFFF;stroke-width:10;stroke-linecap:round;stroke-linejoin:round;stroke-miterlimit:10;}
</style>
<path class="st0" d="M30.8,42.4v282.9c0,16.8,13.6,30.4,30.4,30.4h198c16.8,0,30.4-13.6,30.4-30.4V101.8l-90-90L61.1,12
	C44.4,12.1,30.8,25.7,30.8,42.4z"/>
<path class="st0" d="M196.8,13.3V82c0,12.6,10.2,22.9,22.9,22.9h70.5"/>
<rect x="69.6" y="106.1" class="st0" width="47" height="47"/>
<rect x="69.6" y="273.4" class="st0" width="47" height="47"/>
<rect x="205.3" y="193.1" class="st0" width="51.1" height="51.1"/>
<polyline class="st0" points="119.8,131.6 229.2,131.6 229.2,191.8 "/>
<polyline class="st0" points="204.7,219.4 94.2,219.4 94.2,267.4 "/>
</svg>
