<?xml version="1.0" encoding="utf-8"?>
<!-- Generator: Adobe Illustrator 27.0.0, SVG Export Plug-In . SVG Version: 6.00 Build 0)  -->
<svg width="28px" height="28px" version="1.1" id="Capa_1" xmlns="http://www.w3.org/2000/svg" xmlns:xlink="http://www.w3.org/1999/xlink" x="0px" y="0px"
	 viewBox="0 0 331.4 241.1" style="enable-background:new 0 0 331.4 241.1;" xml:space="preserve">
<style type="text/css">
	.st0{fill:none;stroke:#FFFFFF;stroke-width:13;stroke-linecap:round;stroke-linejoin:round;stroke-miterlimit:10;}
	.st1{fill:none;stroke:#FFFFFF;stroke-width:13;stroke-miterlimit:10;}
	.st2{fill:#FFFFFF;}
	.st3{fill:none;stroke:#FFFFFF;stroke-width:10;stroke-linecap:round;stroke-linejoin:round;stroke-miterlimit:10;}
</style>
<path class="st0" d="M249.6,136c42.2,8.3,70.2,22.7,70.2,39.2c0,25.7-68.2,46.5-152.4,46.5S14.9,200.8,14.9,175.1
	c0-16.5,28.3-31.1,71-39.3"/>
<path class="st0" d="M241.1,165.7c6.4,2.5,10.1,5.4,10.1,8.4c0,9.8-37.6,17.7-83.9,17.7s-83.9-7.9-83.9-17.7c0-3.4,4.6-6.6,12.5-9.3
	"/>
<path class="st0" d="M112.7,112.3L112.7,112.3c0,31.3,25.4,56.7,56.7,56.7h0c31.3,0,56.7-25.4,56.7-56.7v0c0-6-1.9-11.9-5.3-16.8
	l-51.4-73l-51.4,73C114.5,100.4,112.7,106.3,112.7,112.3z"/>
</svg>
