<?xml version="1.0" encoding="utf-8"?>
<!-- Generator: Adobe Illustrator 27.0.0, SVG Export Plug-In . SVG Version: 6.00 Build 0)  -->
<svg width="28px" height="28px" version="1.1" id="Capa_1" xmlns="http://www.w3.org/2000/svg" xmlns:xlink="http://www.w3.org/1999/xlink" x="0px" y="0px"
	 viewBox="0 0 331.4 363.6" style="enable-background:new 0 0 331.4 363.6;" xml:space="preserve">
<style type="text/css">
	.st0{fill:none;stroke:#000000;stroke-width:13;stroke-linecap:round;stroke-linejoin:round;stroke-miterlimit:10;}
	.st1{fill:none;stroke:#000000;stroke-width:13;stroke-miterlimit:10;}
	.st2{fill:none;stroke:#000000;stroke-width:10;stroke-linecap:round;stroke-linejoin:round;stroke-miterlimit:10;}
	.st3{fill:none;stroke:#000000;stroke-width:17;stroke-miterlimit:10;}
	.st4{fill:none;stroke:#000000;stroke-width:17;stroke-linecap:round;stroke-miterlimit:10;}
</style>
<path class="st4" d="M283.3,237.7H51.2c-14.9,0-27-12.1-27-27V75.5c0-14.9,12.1-27,27-27h232.1c14.9,0,27,12.1,27,27v135.2
	C310.3,225.6,298.2,237.7,283.3,237.7z"/>
<line class="st3" x1="163.3" y1="334.6" x2="163.3" y2="245.7"/>
<path class="st4" d="M78.9,328.9c0,0,80.9-94.6,158.5,0"/>
<polyline class="st4" points="66.4,202.3 132.5,136.2 176.9,183 257.9,96.3 "/>
<polyline class="st4" points="222.7,89 266.7,88.6 266.7,129.9 "/>
</svg>
