<?xml version="1.0" encoding="utf-8"?>
<!-- Generator: Adobe Illustrator 27.0.0, SVG Export Plug-In . SVG Version: 6.00 Build 0)  -->
<svg width="28px" height="28px" version="1.1" id="Capa_1" xmlns="http://www.w3.org/2000/svg" xmlns:xlink="http://www.w3.org/1999/xlink" x="0px" y="0px"
	 viewBox="0 0 331.4 363.6" style="enable-background:new 0 0 331.4 363.6;" xml:space="preserve">
<style type="text/css">
	.st0{fill:none;stroke:#FFFFFF;stroke-width:13;stroke-linecap:round;stroke-linejoin:round;stroke-miterlimit:10;}
	.st1{fill:none;stroke:#FFFFFF;stroke-width:13;stroke-miterlimit:10;}
	.st2{fill:#FFFFFF;}
	.st3{fill:none;stroke:#FFFFFF;stroke-width:10;stroke-linecap:round;stroke-linejoin:round;stroke-miterlimit:10;}
</style>
<circle class="st1" cx="184.7" cy="91.7" r="80.7"/>
<g>
	<path class="st2" d="M183.9,135.5c-13.6-0.7-20.2-8.4-20.7-25.2l15.1-2.3c0.1,10.3,2.5,14.2,6.9,14.2c3.6,0,4.4-3.1,4.4-5.8
		c0-6.6-3.4-10.5-8.7-15.2l-7-6c-5.9-5.2-10.7-10.5-10.7-20.8c0-12.5,7.7-19.8,19.8-20.7v-9.4h5v9.3c15.3,0.9,17.1,13.8,17.4,22.6
		L190.2,78c-0.2-7.1-0.6-11.8-5.1-11.6c-3.4,0-4.8,3.4-4.8,6.2c0,6.3,3.8,9.7,7.7,13.1l6.7,5.8c6.7,6.1,12.3,12.9,12.3,23.9
		c0,10.5-6.9,18.8-18,19.9v9.9h-5V135.5z"/>
</g>
<path class="st1" d="M152,252h47c7.6,0,13.6-6.7,12.4-14.3c-1.7-11.7-7.6-26.3-26.1-26.3h-67c-1.1,0-2.2,0.1-3.3,0.4
	c-4,1.1-14.1,4.6-24.1,13.7c-2.3,2.1-5.3,3.3-8.5,3.3H21.1c-6.9,0-12.6,5.6-12.6,12.6v46.9c0,6.9,5.6,12.6,12.6,12.6H67
	c3.2,0,6.3,1.2,8.6,3.4c10.8,10.1,44.8,39.5,78.3,40.6c32.3,1.1,56.7,0,65.2-0.5c2.2-0.1,4.3-0.8,6.1-2
	c17.1-11.2,106.6-72.1,93.8-116.2c-0.9-3.2-2.9-5.9-5.8-7.5c-4.9-2.9-13.8-5.1-23.8,5.3c-15.4,16.1-48.9,51.7-64.3,51.7h-65.8
	c-1,0-1.9-0.1-2.9-0.3c-5-1.2-20.1-5.6-16.1-15.8C142.3,254.9,147,252,152,252z"/>
<line class="st1" x1="72.1" y1="300.9" x2="72.1" y2="226.8"/>
</svg>
